{
    "asset" : {
        "generator" : "Khronos glTF Blender I/O v3.4.50",
        "version" : "2.0"
    },
    "extensionsUsed" : [
        "KHR_materials_specular",
        "KHR_materials_ior"
    ],
    "scene" : 0,
    "scenes" : [
        {
            "name" : "Scene",
            "nodes" : [
                0,
                1,
                2,
                3
            ]
        }
    ],
    "nodes" : [
        {
            "mesh" : 0,
            "name" : "PhoneBody"
        },
        {
            "mesh" : 1,
            "name" : "ScreenGlass"
        },
        {
            "mesh" : 2,
            "name" : "ScreenBezel"
        },
        {
            "mesh" : 3,
            "name" : "ScreenBack"
        }
    ],
    "materials" : [
        {
            "doubleSided" : true,
            "name" : "PhoneBody",
            "pbrMetallicRoughness" : {
                "baseColorFactor" : [
                    0.006838251370936632,
                    0.014032291248440742,
                    0.008593081496655941,
                    1
                ],
                "metallicFactor" : 0,
                "roughnessFactor" : 0.6222222447395325
            }
        },
        {
            "alphaMode" : "BLEND",
            "doubleSided" : true,
            "extensions" : {
                "KHR_materials_specular" : {
                    "specularColorFactor" : [
                        2.371357614441398,
                        2.371357614441398,
                        2.371357614441398
                    ]
                },
                "KHR_materials_ior" : {
                    "ior" : 1.4500000476837158
                }
            },
            "name" : "Glass",
            "pbrMetallicRoughness" : {
                "baseColorFactor" : [
                    0,
                    0,
                    0,
                    0.012658199295401573
                ],
                "metallicFactor" : 0,
                "roughnessFactor" : 0
            }
        },
        {
            "doubleSided" : true,
            "name" : "Black",
            "pbrMetallicRoughness" : {
                "baseColorFactor" : [
                    0,
                    0,
                    0,
                    1
                ],
                "metallicFactor" : 0,
                "roughnessFactor" : 1
            }
        }
    ],
    "meshes" : [
        {
            "name" : "ScreenGlass",
            "primitives" : [
                {
                    "attributes" : {
                        "POSITION" : 0,
                        "TEXCOORD_0" : 1,
                        "NORMAL" : 2
                    },
                    "indices" : 3,
                    "material" : 0
                }
            ]
        },
        {
            "name" : "PhoneBody.001",
            "primitives" : [
                {
                    "attributes" : {
                        "POSITION" : 4,
                        "TEXCOORD_0" : 5,
                        "NORMAL" : 6
                    },
                    "indices" : 7,
                    "material" : 1
                }
            ]
        },
        {
            "name" : "PhoneBody.002",
            "primitives" : [
                {
                    "attributes" : {
                        "POSITION" : 8,
                        "TEXCOORD_0" : 9,
                        "NORMAL" : 10
                    },
                    "indices" : 11,
                    "material" : 2
                }
            ]
        },
        {
            "name" : "PhoneBody.003",
            "primitives" : [
                {
                    "attributes" : {
                        "POSITION" : 12,
                        "TEXCOORD_0" : 13,
                        "NORMAL" : 14
                    },
                    "indices" : 15,
                    "material" : 2
                }
            ]
        }
    ],
    "accessors" : [
        {
            "bufferView" : 0,
            "componentType" : 5126,
            "count" : 3321,
            "max" : [
                0.03840447589755058,
                0.08012020587921143,
                0.004394342191517353
            ],
            "min" : [
                -0.03840447589755058,
                -0.08012020587921143,
                -0.004400000907480717
            ],
            "type" : "VEC3"
        },
        {
            "bufferView" : 1,
            "componentType" : 5126,
            "count" : 3321,
            "type" : "VEC2"
        },
        {
            "bufferView" : 2,
            "componentType" : 5126,
            "count" : 3321,
            "type" : "VEC3"
        },
        {
            "bufferView" : 3,
            "componentType" : 5123,
            "count" : 16128,
            "type" : "SCALAR"
        },
        {
            "bufferView" : 4,
            "componentType" : 5126,
            "count" : 1145,
            "max" : [
                0.036114517599344254,
                0.077462337911129,
                0.005033896304666996
            ],
            "min" : [
                -0.036114517599344254,
                -0.077462337911129,
                0.0036949156783521175
            ],
            "type" : "VEC3"
        },
        {
            "bufferView" : 5,
            "componentType" : 5126,
            "count" : 1145,
            "type" : "VEC2"
        },
        {
            "bufferView" : 6,
            "componentType" : 5126,
            "count" : 1145,
            "type" : "VEC3"
        },
        {
            "bufferView" : 7,
            "componentType" : 5123,
            "count" : 6144,
            "type" : "SCALAR"
        },
        {
            "bufferView" : 8,
            "componentType" : 5126,
            "count" : 2020,
            "max" : [
                0.036114517599344254,
                0.077462337911129,
                0.005005357321351767
            ],
            "min" : [
                -0.036114517599344254,
                -0.077462337911129,
                0.003666997654363513
            ],
            "type" : "VEC3"
        },
        {
            "bufferView" : 9,
            "componentType" : 5126,
            "count" : 2020,
            "type" : "VEC2"
        },
        {
            "bufferView" : 10,
            "componentType" : 5126,
            "count" : 2020,
            "type" : "VEC3"
        },
        {
            "bufferView" : 11,
            "componentType" : 5123,
            "count" : 9600,
            "type" : "SCALAR"
        },
        {
            "bufferView" : 12,
            "componentType" : 5126,
            "count" : 27,
            "max" : [
                0.036114513874053955,
                0.0774623304605484,
                0.003932433668524027
            ],
            "min" : [
                -0.036114513874053955,
                -0.0774623304605484,
                0.003932433668524027
            ],
            "type" : "VEC3"
        },
        {
            "bufferView" : 13,
            "componentType" : 5126,
            "count" : 27,
            "type" : "VEC2"
        },
        {
            "bufferView" : 14,
            "componentType" : 5126,
            "count" : 27,
            "type" : "VEC3"
        },
        {
            "bufferView" : 15,
            "componentType" : 5123,
            "count" : 120,
            "type" : "SCALAR"
        }
    ],
    "bufferViews" : [
        {
            "buffer" : 0,
            "byteLength" : 39852,
            "byteOffset" : 0,
            "target" : 34962
        },
        {
            "buffer" : 0,
            "byteLength" : 26568,
            "byteOffset" : 39852,
            "target" : 34962
        },
        {
            "buffer" : 0,
            "byteLength" : 39852,
            "byteOffset" : 66420,
            "target" : 34962
        },
        {
            "buffer" : 0,
            "byteLength" : 32256,
            "byteOffset" : 106272,
            "target" : 34963
        },
        {
            "buffer" : 0,
            "byteLength" : 13740,
            "byteOffset" : 138528,
            "target" : 34962
        },
        {
            "buffer" : 0,
            "byteLength" : 9160,
            "byteOffset" : 152268,
            "target" : 34962
        },
        {
            "buffer" : 0,
            "byteLength" : 13740,
            "byteOffset" : 161428,
            "target" : 34962
        },
        {
            "buffer" : 0,
            "byteLength" : 12288,
            "byteOffset" : 175168,
            "target" : 34963
        },
        {
            "buffer" : 0,
            "byteLength" : 24240,
            "byteOffset" : 187456,
            "target" : 34962
        },
        {
            "buffer" : 0,
            "byteLength" : 16160,
            "byteOffset" : 211696,
            "target" : 34962
        },
        {
            "buffer" : 0,
            "byteLength" : 24240,
            "byteOffset" : 227856,
            "target" : 34962
        },
        {
            "buffer" : 0,
            "byteLength" : 19200,
            "byteOffset" : 252096,
            "target" : 34963
        },
        {
            "buffer" : 0,
            "byteLength" : 324,
            "byteOffset" : 271296,
            "target" : 34962
        },
        {
            "buffer" : 0,
            "byteLength" : 216,
            "byteOffset" : 271620,
            "target" : 34962
        },
        {
            "buffer" : 0,
            "byteLength" : 324,
            "byteOffset" : 271836,
            "target" : 34962
        },
        {
            "buffer" : 0,
            "byteLength" : 240,
            "byteOffset" : 272160,
            "target" : 34963
        }
    ],
    "buffers" : [
        {
            "byteLength" : 272400,
            "uri" : "data:application/octet-stream;base64,"
        }
    ]
}
