{
    "asset" : {
        "generator" : "Khronos glTF Blender I/O v3.2.43",
        "version" : "2.0"
    },
    "scene" : 0,
    "scenes" : [
        {
            "name" : "Scene",
            "nodes" : [
                0
            ]
        }
    ],
    "nodes" : [
        {
            "mesh" : 0,
            "name" : "Cylinder"
        }
    ],
    "materials" : [
        {
            "doubleSided" : true,
            "name" : "Metal",
            "pbrMetallicRoughness" : {
                "baseColorFactor" : [
                    0.800000011920929,
                    0.800000011920929,
                    0.800000011920929,
                    1
                ],
                "roughnessFactor" : 0.25
            }
        },
        {
            "doubleSided" : true,
            "name" : "Black",
            "pbrMetallicRoughness" : {
                "baseColorFactor" : [
                    0.015324405394494534,
                    0.015324405394494534,
                    0.015324405394494534,
                    1
                ],
                "metallicFactor" : 0,
                "roughnessFactor" : 0.5
            }
        }
    ],
    "meshes" : [
        {
            "name" : "Cylinder",
            "primitives" : [
                {
                    "attributes" : {
                        "POSITION" : 0,
                        "NORMAL" : 1,
                        "TEXCOORD_0" : 2
                    },
                    "indices" : 3,
                    "material" : 0
                },
                {
                    "attributes" : {
                        "POSITION" : 4,
                        "NORMAL" : 5,
                        "TEXCOORD_0" : 6
                    },
                    "indices" : 7,
                    "material" : 1
                }
            ]
        }
    ],
    "accessors" : [
        {
            "bufferView" : 0,
            "componentType" : 5126,
            "count" : 1393,
            "max" : [
                0.004577649291604757,
                0.004577649291604757,
                0.053587865084409714
            ],
            "min" : [
                -0.004577649291604757,
                -0.004577649291604757,
                -0.00014709128299728036
            ],
            "type" : "VEC3"
        },
        {
            "bufferView" : 1,
            "componentType" : 5126,
            "count" : 1393,
            "type" : "VEC3"
        },
        {
            "bufferView" : 2,
            "componentType" : 5126,
            "count" : 1393,
            "type" : "VEC2"
        },
        {
            "bufferView" : 3,
            "componentType" : 5123,
            "count" : 5568,
            "type" : "SCALAR"
        },
        {
            "bufferView" : 4,
            "componentType" : 5126,
            "count" : 159,
            "max" : [
                0.0022234388161450624,
                0.002223438583314419,
                0.04737558960914612
            ],
            "min" : [
                -0.002223438583314419,
                -0.0022234388161450624,
                0.0467299222946167
            ],
            "type" : "VEC3"
        },
        {
            "bufferView" : 5,
            "componentType" : 5126,
            "count" : 159,
            "type" : "VEC3"
        },
        {
            "bufferView" : 6,
            "componentType" : 5126,
            "count" : 159,
            "type" : "VEC2"
        },
        {
            "bufferView" : 7,
            "componentType" : 5123,
            "count" : 576,
            "type" : "SCALAR"
        }
    ],
    "bufferViews" : [
        {
            "buffer" : 0,
            "byteLength" : 16716,
            "byteOffset" : 0
        },
        {
            "buffer" : 0,
            "byteLength" : 16716,
            "byteOffset" : 16716
        },
        {
            "buffer" : 0,
            "byteLength" : 11144,
            "byteOffset" : 33432
        },
        {
            "buffer" : 0,
            "byteLength" : 11136,
            "byteOffset" : 44576
        },
        {
            "buffer" : 0,
            "byteLength" : 1908,
            "byteOffset" : 55712
        },
        {
            "buffer" : 0,
            "byteLength" : 1908,
            "byteOffset" : 57620
        },
        {
            "buffer" : 0,
            "byteLength" : 1272,
            "byteOffset" : 59528
        },
        {
            "buffer" : 0,
            "byteLength" : 1152,
            "byteOffset" : 60800
        }
    ],
    "buffers" : [
        {
            "byteLength" : 61952,
            "uri" : "data:application/octet-stream;base64,"
        }
    ]
}
