{
    "asset" : {
        "generator" : "Khronos glTF Blender I/O v3.2.43",
        "version" : "2.0"
    },
    "scene" : 0,
    "scenes" : [
        {
            "name" : "Scene",
            "nodes" : [
                0
            ]
        }
    ],
    "nodes" : [
        {
            "mesh" : 0,
            "name" : "Plane"
        }
    ],
    "meshes" : [
        {
            "name" : "Plane",
            "primitives" : [
                {
                    "attributes" : {
                        "POSITION" : 0,
                        "NORMAL" : 1,
                        "TEXCOORD_0" : 2
                    },
                    "indices" : 3
                }
            ]
        }
    ],
    "accessors" : [
        {
            "bufferView" : 0,
            "componentType" : 5126,
            "count" : 520,
            "max" : [
                0.18179883062839508,
                0.0071161361411213875,
                0.29061147570610046
            ],
            "min" : [
                -0.18179883062839508,
                -0.11116405576467514,
                -0.7049365639686584
            ],
            "type" : "VEC3"
        },
        {
            "bufferView" : 1,
            "componentType" : 5126,
            "count" : 520,
            "type" : "VEC3"
        },
        {
            "bufferView" : 2,
            "componentType" : 5126,
            "count" : 520,
            "type" : "VEC2"
        },
        {
            "bufferView" : 3,
            "componentType" : 5123,
            "count" : 2268,
            "type" : "SCALAR"
        }
    ],
    "bufferViews" : [
        {
            "buffer" : 0,
            "byteLength" : 6240,
            "byteOffset" : 0
        },
        {
            "buffer" : 0,
            "byteLength" : 6240,
            "byteOffset" : 6240
        },
        {
            "buffer" : 0,
            "byteLength" : 4160,
            "byteOffset" : 12480
        },
        {
            "buffer" : 0,
            "byteLength" : 4536,
            "byteOffset" : 16640
        }
    ],
    "buffers" : [
        {
            "byteLength" : 21176,
            "uri" : "data:application/octet-stream;base64,"
        }
    ]
}
