{
    "asset" : {
        "generator" : "Khronos glTF Blender I/O v3.2.43",
        "version" : "2.0"
    },
    "scene" : 0,
    "scenes" : [
        {
            "name" : "Scene",
            "nodes" : [
                0
            ]
        }
    ],
    "nodes" : [
        {
            "mesh" : 0,
            "name" : "Guitar"
        }
    ],
    "materials" : [
        {
            "doubleSided" : true,
            "name" : "face",
            "pbrMetallicRoughness" : {
                "baseColorFactor" : [
                    0.8000000715255737,
                    0.5084837675094604,
                    0.267851859331131,
                    1
                ],
                "metallicFactor" : 0,
                "roughnessFactor" : 0.5
            }
        },
        {
            "doubleSided" : true,
            "name" : "main",
            "pbrMetallicRoughness" : {
                "baseColorFactor" : [
                    0.2500000596046448,
                    0.10115969926118851,
                    0.039949532598257065,
                    1
                ],
                "metallicFactor" : 0,
                "roughnessFactor" : 0.5
            }
        },
        {
            "doubleSided" : true,
            "name" : "fretboard",
            "pbrMetallicRoughness" : {
                "baseColorFactor" : [
                    0.06071436032652855,
                    0.033565398305654526,
                    0.023148177191615105,
                    1
                ],
                "metallicFactor" : 0,
                "roughnessFactor" : 0.5
            }
        }
    ],
    "meshes" : [
        {
            "name" : "Guitar",
            "primitives" : [
                {
                    "attributes" : {
                        "POSITION" : 0,
                        "NORMAL" : 1,
                        "TEXCOORD_0" : 2
                    },
                    "indices" : 3,
                    "material" : 0
                },
                {
                    "attributes" : {
                        "POSITION" : 4,
                        "NORMAL" : 5,
                        "TEXCOORD_0" : 6
                    },
                    "indices" : 7,
                    "material" : 1
                },
                {
                    "attributes" : {
                        "POSITION" : 8,
                        "NORMAL" : 9,
                        "TEXCOORD_0" : 10
                    },
                    "indices" : 11,
                    "material" : 2
                }
            ]
        }
    ],
    "accessors" : [
        {
            "bufferView" : 0,
            "componentType" : 5126,
            "count" : 2165,
            "max" : [
                0.18203075230121613,
                -1.6203290215344168e-05,
                0.3172593414783478
            ],
            "min" : [
                -0.18203075230121613,
                -0.005338246468454599,
                -0.18105977773666382
            ],
            "type" : "VEC3"
        },
        {
            "bufferView" : 1,
            "componentType" : 5126,
            "count" : 2165,
            "type" : "VEC3"
        },
        {
            "bufferView" : 2,
            "componentType" : 5126,
            "count" : 2165,
            "type" : "VEC2"
        },
        {
            "bufferView" : 3,
            "componentType" : 5123,
            "count" : 10752,
            "type" : "SCALAR"
        },
        {
            "bufferView" : 4,
            "componentType" : 5126,
            "count" : 6315,
            "max" : [
                0.18237049877643585,
                0.007073491811752319,
                0.31761395931243896
            ],
            "min" : [
                -0.18237052857875824,
                -0.11116399616003036,
                -0.6726007461547852
            ],
            "type" : "VEC3"
        },
        {
            "bufferView" : 5,
            "componentType" : 5126,
            "count" : 6315,
            "type" : "VEC3"
        },
        {
            "bufferView" : 6,
            "componentType" : 5126,
            "count" : 6315,
            "type" : "VEC2"
        },
        {
            "bufferView" : 7,
            "componentType" : 5123,
            "count" : 30624,
            "type" : "SCALAR"
        },
        {
            "bufferView" : 8,
            "componentType" : 5126,
            "count" : 770,
            "max" : [
                0.044506460428237915,
                0.007116135209798813,
                -0.06152334064245224
            ],
            "min" : [
                -0.044506464153528214,
                -0.0029525533318519592,
                -0.5486756563186646
            ],
            "type" : "VEC3"
        },
        {
            "bufferView" : 9,
            "componentType" : 5126,
            "count" : 770,
            "type" : "VEC3"
        },
        {
            "bufferView" : 10,
            "componentType" : 5126,
            "count" : 770,
            "type" : "VEC2"
        },
        {
            "bufferView" : 11,
            "componentType" : 5123,
            "count" : 3840,
            "type" : "SCALAR"
        }
    ],
    "bufferViews" : [
        {
            "buffer" : 0,
            "byteLength" : 25980,
            "byteOffset" : 0
        },
        {
            "buffer" : 0,
            "byteLength" : 25980,
            "byteOffset" : 25980
        },
        {
            "buffer" : 0,
            "byteLength" : 17320,
            "byteOffset" : 51960
        },
        {
            "buffer" : 0,
            "byteLength" : 21504,
            "byteOffset" : 69280
        },
        {
            "buffer" : 0,
            "byteLength" : 75780,
            "byteOffset" : 90784
        },
        {
            "buffer" : 0,
            "byteLength" : 75780,
            "byteOffset" : 166564
        },
        {
            "buffer" : 0,
            "byteLength" : 50520,
            "byteOffset" : 242344
        },
        {
            "buffer" : 0,
            "byteLength" : 61248,
            "byteOffset" : 292864
        },
        {
            "buffer" : 0,
            "byteLength" : 9240,
            "byteOffset" : 354112
        },
        {
            "buffer" : 0,
            "byteLength" : 9240,
            "byteOffset" : 363352
        },
        {
            "buffer" : 0,
            "byteLength" : 6160,
            "byteOffset" : 372592
        },
        {
            "buffer" : 0,
            "byteLength" : 7680,
            "byteOffset" : 378752
        }
    ],
    "buffers" : [
        {
            "byteLength" : 386432,
            "uri" : "data:application/octet-stream;base64,"
        }
    ]
}
