{
    "asset" : {
        "generator" : "Khronos glTF Blender I/O v3.2.43",
        "version" : "2.0"
    },
    "scene" : 0,
    "scenes" : [
        {
            "name" : "Scene",
            "nodes" : [
                0,
                1,
                2,
                3
            ]
        }
    ],
    "nodes" : [
        {
            "mesh" : 0,
            "name" : "Body",
            "scale" : [
                0.3999999761581421,
                0.25,
                0.5999999642372131
            ]
        },
        {
            "mesh" : 1,
            "name" : "Knob",
            "translation" : [
                0,
                0.02500000037252903,
                -0.02500000037252903
            ]
        },
        {
            "mesh" : 2,
            "name" : "Input",
            "translation" : [
                0.03999999910593033,
                0,
                0
            ]
        },
        {
            "mesh" : 3,
            "name" : "Output",
            "translation" : [
                -0.03999999910593033,
                0,
                0
            ]
        }
    ],
    "materials" : [
        {
            "doubleSided" : true,
            "name" : "Body",
            "pbrMetallicRoughness" : {
                "baseColorFactor" : [
                    0.8000000715255737,
                    0.0964416041970253,
                    0.046511150896549225,
                    1
                ],
                "metallicFactor" : 0,
                "roughnessFactor" : 0.5
            }
        },
        {
            "doubleSided" : true,
            "name" : "Knob",
            "pbrMetallicRoughness" : {
                "baseColorFactor" : [
                    0.012806019745767117,
                    0.012806019745767117,
                    0.012806019745767117,
                    1
                ],
                "metallicFactor" : 0,
                "roughnessFactor" : 0.5
            }
        },
        {
            "doubleSided" : true,
            "name" : "Metal",
            "pbrMetallicRoughness" : {
                "baseColorFactor" : [
                    0.800000011920929,
                    0.800000011920929,
                    0.800000011920929,
                    1
                ],
                "roughnessFactor" : 0.5
            }
        }
    ],
    "meshes" : [
        {
            "name" : "Cube",
            "primitives" : [
                {
                    "attributes" : {
                        "POSITION" : 0,
                        "NORMAL" : 1,
                        "TEXCOORD_0" : 2
                    },
                    "indices" : 3,
                    "material" : 0
                }
            ]
        },
        {
            "name" : "Cylinder.002",
            "primitives" : [
                {
                    "attributes" : {
                        "POSITION" : 4,
                        "NORMAL" : 5,
                        "TEXCOORD_0" : 6
                    },
                    "indices" : 7,
                    "material" : 1
                }
            ]
        },
        {
            "name" : "Torus",
            "primitives" : [
                {
                    "attributes" : {
                        "POSITION" : 8,
                        "NORMAL" : 9,
                        "TEXCOORD_0" : 10
                    },
                    "indices" : 11,
                    "material" : 2
                }
            ]
        },
        {
            "name" : "Torus.001",
            "primitives" : [
                {
                    "attributes" : {
                        "POSITION" : 12,
                        "NORMAL" : 13,
                        "TEXCOORD_0" : 14
                    },
                    "indices" : 11,
                    "material" : 2
                }
            ]
        }
    ],
    "accessors" : [
        {
            "bufferView" : 0,
            "componentType" : 5126,
            "count" : 131,
            "max" : [
                0.10000000149011612,
                0.10000000149011612,
                0.10000000149011612
            ],
            "min" : [
                -0.10000000149011612,
                -0.10000000149011612,
                -0.10000000149011612
            ],
            "type" : "VEC3"
        },
        {
            "bufferView" : 1,
            "componentType" : 5126,
            "count" : 131,
            "type" : "VEC3"
        },
        {
            "bufferView" : 2,
            "componentType" : 5126,
            "count" : 131,
            "type" : "VEC2"
        },
        {
            "bufferView" : 3,
            "componentType" : 5123,
            "count" : 564,
            "type" : "SCALAR"
        },
        {
            "bufferView" : 4,
            "componentType" : 5126,
            "count" : 89,
            "max" : [
                0.008668786846101284,
                0.019999999552965164,
                0.00845144223421812
            ],
            "min" : [
                -0.008668786846101284,
                -5.80542725003852e-10,
                -0.00845144223421812
            ],
            "type" : "VEC3"
        },
        {
            "bufferView" : 5,
            "componentType" : 5126,
            "count" : 89,
            "type" : "VEC3"
        },
        {
            "bufferView" : 6,
            "componentType" : 5126,
            "count" : 89,
            "type" : "VEC2"
        },
        {
            "bufferView" : 7,
            "componentType" : 5123,
            "count" : 336,
            "type" : "SCALAR"
        },
        {
            "bufferView" : 8,
            "componentType" : 5126,
            "count" : 103,
            "max" : [
                0.0035000001080334187,
                0.009793896228075027,
                0.01130901649594307
            ],
            "min" : [
                -0.0015000001294538379,
                -0.009793897159397602,
                -0.01130901649594307
            ],
            "type" : "VEC3"
        },
        {
            "bufferView" : 9,
            "componentType" : 5126,
            "count" : 103,
            "type" : "VEC3"
        },
        {
            "bufferView" : 10,
            "componentType" : 5126,
            "count" : 103,
            "type" : "VEC2"
        },
        {
            "bufferView" : 11,
            "componentType" : 5123,
            "count" : 528,
            "type" : "SCALAR"
        },
        {
            "bufferView" : 12,
            "componentType" : 5126,
            "count" : 103,
            "max" : [
                0.0015000023413449526,
                0.009793896228075027,
                0.01130901649594307
            ],
            "min" : [
                -0.003500002436339855,
                -0.009793897159397602,
                -0.011309017427265644
            ],
            "type" : "VEC3"
        },
        {
            "bufferView" : 13,
            "componentType" : 5126,
            "count" : 103,
            "type" : "VEC3"
        },
        {
            "bufferView" : 14,
            "componentType" : 5126,
            "count" : 103,
            "type" : "VEC2"
        }
    ],
    "bufferViews" : [
        {
            "buffer" : 0,
            "byteLength" : 1572,
            "byteOffset" : 0
        },
        {
            "buffer" : 0,
            "byteLength" : 1572,
            "byteOffset" : 1572
        },
        {
            "buffer" : 0,
            "byteLength" : 1048,
            "byteOffset" : 3144
        },
        {
            "buffer" : 0,
            "byteLength" : 1128,
            "byteOffset" : 4192
        },
        {
            "buffer" : 0,
            "byteLength" : 1068,
            "byteOffset" : 5320
        },
        {
            "buffer" : 0,
            "byteLength" : 1068,
            "byteOffset" : 6388
        },
        {
            "buffer" : 0,
            "byteLength" : 712,
            "byteOffset" : 7456
        },
        {
            "buffer" : 0,
            "byteLength" : 672,
            "byteOffset" : 8168
        },
        {
            "buffer" : 0,
            "byteLength" : 1236,
            "byteOffset" : 8840
        },
        {
            "buffer" : 0,
            "byteLength" : 1236,
            "byteOffset" : 10076
        },
        {
            "buffer" : 0,
            "byteLength" : 824,
            "byteOffset" : 11312
        },
        {
            "buffer" : 0,
            "byteLength" : 1056,
            "byteOffset" : 12136
        },
        {
            "buffer" : 0,
            "byteLength" : 1236,
            "byteOffset" : 13192
        },
        {
            "buffer" : 0,
            "byteLength" : 1236,
            "byteOffset" : 14428
        },
        {
            "buffer" : 0,
            "byteLength" : 824,
            "byteOffset" : 15664
        }
    ],
    "buffers" : [
        {
            "byteLength" : 16488,
            "uri" : "data:application/octet-stream;base64,"
        }
    ]
}
