{
    "asset" : {
        "generator" : "Khronos glTF Blender I/O v3.2.43",
        "version" : "2.0"
    },
    "scene" : 0,
    "scenes" : [
        {
            "name" : "Scene",
            "nodes" : [
                0,
                1,
                2,
                3
            ]
        }
    ],
    "nodes" : [
        {
            "mesh" : 0,
            "name" : "Body",
            "scale" : [
                0.3999999761581421,
                0.25,
                0.5999999642372131
            ]
        },
        {
            "mesh" : 1,
            "name" : "Knob",
            "translation" : [
                0.014999999664723873,
                0.02500000037252903,
                -0.02500000037252903
            ]
        },
        {
            "mesh" : 2,
            "name" : "Input",
            "translation" : [
                0.03999999910593033,
                0,
                0
            ]
        },
        {
            "mesh" : 3,
            "name" : "StompButton",
            "translation" : [
                0,
                0.02500000037252903,
                0.03333333507180214
            ]
        }
    ],
    "materials" : [
        {
            "doubleSided" : true,
            "name" : "Body",
            "pbrMetallicRoughness" : {
                "baseColorFactor" : [
                    0.8000000715255737,
                    0.0964416041970253,
                    0.046511150896549225,
                    1
                ],
                "metallicFactor" : 0,
                "roughnessFactor" : 0.25
            }
        },
        {
            "doubleSided" : true,
            "name" : "Knob",
            "pbrMetallicRoughness" : {
                "baseColorFactor" : [
                    0.012806019745767117,
                    0.012806019745767117,
                    0.012806019745767117,
                    1
                ],
                "metallicFactor" : 0,
                "roughnessFactor" : 0.5
            }
        },
        {
            "doubleSided" : true,
            "name" : "Knob_white",
            "pbrMetallicRoughness" : {
                "baseColorFactor" : [
                    0.800000011920929,
                    0.800000011920929,
                    0.800000011920929,
                    1
                ],
                "metallicFactor" : 0,
                "roughnessFactor" : 0.5
            }
        },
        {
            "doubleSided" : true,
            "name" : "Metal",
            "pbrMetallicRoughness" : {
                "baseColorFactor" : [
                    0.800000011920929,
                    0.800000011920929,
                    0.800000011920929,
                    1
                ],
                "roughnessFactor" : 0.5
            }
        }
    ],
    "meshes" : [
        {
            "name" : "Cube",
            "primitives" : [
                {
                    "attributes" : {
                        "POSITION" : 0,
                        "NORMAL" : 1,
                        "TEXCOORD_0" : 2
                    },
                    "indices" : 3,
                    "material" : 0
                }
            ]
        },
        {
            "name" : "Cylinder.002",
            "primitives" : [
                {
                    "attributes" : {
                        "POSITION" : 4,
                        "NORMAL" : 5,
                        "TEXCOORD_0" : 6
                    },
                    "indices" : 7,
                    "material" : 1
                },
                {
                    "attributes" : {
                        "POSITION" : 8,
                        "NORMAL" : 9,
                        "TEXCOORD_0" : 10
                    },
                    "indices" : 11,
                    "material" : 2
                }
            ]
        },
        {
            "name" : "Torus",
            "primitives" : [
                {
                    "attributes" : {
                        "POSITION" : 12,
                        "NORMAL" : 13,
                        "TEXCOORD_0" : 14
                    },
                    "indices" : 15,
                    "material" : 3
                }
            ]
        },
        {
            "name" : "Cylinder",
            "primitives" : [
                {
                    "attributes" : {
                        "POSITION" : 16,
                        "NORMAL" : 17,
                        "TEXCOORD_0" : 18
                    },
                    "indices" : 19,
                    "material" : 3
                }
            ]
        }
    ],
    "accessors" : [
        {
            "bufferView" : 0,
            "componentType" : 5126,
            "count" : 192,
            "max" : [
                0.10000000149011612,
                0.10000000149011612,
                0.10000000149011612
            ],
            "min" : [
                -0.10000000149011612,
                -0.10000000149011612,
                -0.10000000149011612
            ],
            "type" : "VEC3"
        },
        {
            "bufferView" : 1,
            "componentType" : 5126,
            "count" : 192,
            "type" : "VEC3"
        },
        {
            "bufferView" : 2,
            "componentType" : 5126,
            "count" : 192,
            "type" : "VEC2"
        },
        {
            "bufferView" : 3,
            "componentType" : 5123,
            "count" : 900,
            "type" : "SCALAR"
        },
        {
            "bufferView" : 4,
            "componentType" : 5126,
            "count" : 4426,
            "max" : [
                0.008382604457437992,
                0.02000001072883606,
                0.008451429195702076
            ],
            "min" : [
                -0.038382600992918015,
                -6.0321937780827284e-05,
                -0.008453440852463245
            ],
            "type" : "VEC3"
        },
        {
            "bufferView" : 5,
            "componentType" : 5126,
            "count" : 4426,
            "type" : "VEC3"
        },
        {
            "bufferView" : 6,
            "componentType" : 5126,
            "count" : 4426,
            "type" : "VEC2"
        },
        {
            "bufferView" : 7,
            "componentType" : 5123,
            "count" : 17520,
            "type" : "SCALAR"
        },
        {
            "bufferView" : 8,
            "componentType" : 5126,
            "count" : 432,
            "max" : [
                0.0008084865985438228,
                0.01975136809051037,
                -0.0042662909254431725
            ],
            "min" : [
                -0.03080848418176174,
                0.00016844342462718487,
                -0.00820273905992508
            ],
            "type" : "VEC3"
        },
        {
            "bufferView" : 9,
            "componentType" : 5126,
            "count" : 432,
            "type" : "VEC3"
        },
        {
            "bufferView" : 10,
            "componentType" : 5126,
            "count" : 432,
            "type" : "VEC2"
        },
        {
            "bufferView" : 11,
            "componentType" : 5123,
            "count" : 1440,
            "type" : "SCALAR"
        },
        {
            "bufferView" : 12,
            "componentType" : 5126,
            "count" : 3338,
            "max" : [
                0.0034597115591168404,
                0.009785992093384266,
                0.011118274182081223
            ],
            "min" : [
                -0.08345971256494522,
                -0.009785992093384266,
                -0.011118274182081223
            ],
            "type" : "VEC3"
        },
        {
            "bufferView" : 13,
            "componentType" : 5126,
            "count" : 3338,
            "type" : "VEC3"
        },
        {
            "bufferView" : 14,
            "componentType" : 5126,
            "count" : 3338,
            "type" : "VEC2"
        },
        {
            "bufferView" : 15,
            "componentType" : 5123,
            "count" : 14208,
            "type" : "SCALAR"
        },
        {
            "bufferView" : 16,
            "componentType" : 5126,
            "count" : 2217,
            "max" : [
                0.012449505738914013,
                0.020000001415610313,
                0.00973893515765667
            ],
            "min" : [
                -0.0070283678360283375,
                0,
                -0.00973893515765667
            ],
            "type" : "VEC3"
        },
        {
            "bufferView" : 17,
            "componentType" : 5126,
            "count" : 2217,
            "type" : "VEC3"
        },
        {
            "bufferView" : 18,
            "componentType" : 5126,
            "count" : 2217,
            "type" : "VEC2"
        },
        {
            "bufferView" : 19,
            "componentType" : 5123,
            "count" : 9984,
            "type" : "SCALAR"
        }
    ],
    "bufferViews" : [
        {
            "buffer" : 0,
            "byteLength" : 2304,
            "byteOffset" : 0
        },
        {
            "buffer" : 0,
            "byteLength" : 2304,
            "byteOffset" : 2304
        },
        {
            "buffer" : 0,
            "byteLength" : 1536,
            "byteOffset" : 4608
        },
        {
            "buffer" : 0,
            "byteLength" : 1800,
            "byteOffset" : 6144
        },
        {
            "buffer" : 0,
            "byteLength" : 53112,
            "byteOffset" : 7944
        },
        {
            "buffer" : 0,
            "byteLength" : 53112,
            "byteOffset" : 61056
        },
        {
            "buffer" : 0,
            "byteLength" : 35408,
            "byteOffset" : 114168
        },
        {
            "buffer" : 0,
            "byteLength" : 35040,
            "byteOffset" : 149576
        },
        {
            "buffer" : 0,
            "byteLength" : 5184,
            "byteOffset" : 184616
        },
        {
            "buffer" : 0,
            "byteLength" : 5184,
            "byteOffset" : 189800
        },
        {
            "buffer" : 0,
            "byteLength" : 3456,
            "byteOffset" : 194984
        },
        {
            "buffer" : 0,
            "byteLength" : 2880,
            "byteOffset" : 198440
        },
        {
            "buffer" : 0,
            "byteLength" : 40056,
            "byteOffset" : 201320
        },
        {
            "buffer" : 0,
            "byteLength" : 40056,
            "byteOffset" : 241376
        },
        {
            "buffer" : 0,
            "byteLength" : 26704,
            "byteOffset" : 281432
        },
        {
            "buffer" : 0,
            "byteLength" : 28416,
            "byteOffset" : 308136
        },
        {
            "buffer" : 0,
            "byteLength" : 26604,
            "byteOffset" : 336552
        },
        {
            "buffer" : 0,
            "byteLength" : 26604,
            "byteOffset" : 363156
        },
        {
            "buffer" : 0,
            "byteLength" : 17736,
            "byteOffset" : 389760
        },
        {
            "buffer" : 0,
            "byteLength" : 19968,
            "byteOffset" : 407496
        }
    ],
    "buffers" : [
        {
            "byteLength" : 427464,
            "uri" : "data:application/octet-stream;base64,"
        }
    ]
}
