{
    "asset" : {
        "generator" : "Khronos glTF Blender I/O v3.4.50",
        "version" : "2.0"
    },
    "scene" : 0,
    "scenes" : [
        {
            "name" : "Scene",
            "nodes" : [
                0,
                1,
                2
            ]
        }
    ],
    "nodes" : [
        {
            "mesh" : 0,
            "name" : "Guitar"
        },
        {
            "mesh" : 1,
            "name" : "Cylinder"
        },
        {
            "mesh" : 2,
            "name" : "Cylinder.001"
        }
    ],
    "materials" : [
        {
            "doubleSided" : true,
            "name" : "face",
            "pbrMetallicRoughness" : {
                "baseColorFactor" : [
                    0.8000000715255737,
                    0.5084837675094604,
                    0.267851859331131,
                    1
                ],
                "metallicFactor" : 0,
                "roughnessFactor" : 0.5
            }
        },
        {
            "doubleSided" : true,
            "name" : "main",
            "pbrMetallicRoughness" : {
                "baseColorFactor" : [
                    0.2500000596046448,
                    0.10115969926118851,
                    0.039949532598257065,
                    1
                ],
                "metallicFactor" : 0,
                "roughnessFactor" : 0.5
            }
        },
        {
            "doubleSided" : true,
            "name" : "fretboard",
            "pbrMetallicRoughness" : {
                "baseColorFactor" : [
                    0.06071436032652855,
                    0.033565398305654526,
                    0.023148177191615105,
                    1
                ],
                "metallicFactor" : 0,
                "roughnessFactor" : 0.5
            }
        },
        {
            "doubleSided" : true,
            "name" : "metal",
            "pbrMetallicRoughness" : {
                "baseColorFactor" : [
                    0.800000011920929,
                    0.800000011920929,
                    0.800000011920929,
                    1
                ],
                "roughnessFactor" : 0.4000000059604645
            }
        }
    ],
    "meshes" : [
        {
            "name" : "Guitar",
            "primitives" : [
                {
                    "attributes" : {
                        "POSITION" : 0,
                        "TEXCOORD_0" : 1,
                        "NORMAL" : 2
                    },
                    "indices" : 3,
                    "material" : 0
                },
                {
                    "attributes" : {
                        "POSITION" : 4,
                        "TEXCOORD_0" : 5,
                        "NORMAL" : 6
                    },
                    "indices" : 7,
                    "material" : 1
                },
                {
                    "attributes" : {
                        "POSITION" : 8,
                        "TEXCOORD_0" : 9,
                        "NORMAL" : 10
                    },
                    "indices" : 11,
                    "material" : 2
                }
            ]
        },
        {
            "name" : "Cylinder",
            "primitives" : [
                {
                    "attributes" : {
                        "POSITION" : 12,
                        "TEXCOORD_0" : 13,
                        "NORMAL" : 14
                    },
                    "indices" : 15,
                    "material" : 3
                }
            ]
        },
        {
            "name" : "Cylinder.001",
            "primitives" : [
                {
                    "attributes" : {
                        "POSITION" : 16,
                        "TEXCOORD_0" : 17,
                        "NORMAL" : 18
                    },
                    "indices" : 19,
                    "material" : 3
                }
            ]
        }
    ],
    "accessors" : [
        {
            "bufferView" : 0,
            "componentType" : 5126,
            "count" : 1856,
            "max" : [
                0.20042148232460022,
                0.061695974320173264,
                0.3415452837944031
            ],
            "min" : [
                -0.20042148232460022,
                0.05584292858839035,
                -0.2060513198375702
            ],
            "type" : "VEC3"
        },
        {
            "bufferView" : 1,
            "componentType" : 5126,
            "count" : 1856,
            "type" : "VEC2"
        },
        {
            "bufferView" : 2,
            "componentType" : 5126,
            "count" : 1856,
            "type" : "VEC3"
        },
        {
            "bufferView" : 3,
            "componentType" : 5123,
            "count" : 9216,
            "type" : "SCALAR"
        },
        {
            "bufferView" : 4,
            "componentType" : 5126,
            "count" : 6477,
            "max" : [
                0.20076897740364075,
                0.06933166831731796,
                0.3418942093849182
            ],
            "min" : [
                -0.20076897740364075,
                -0.06042178347706795,
                -0.6782450079917908
            ],
            "type" : "VEC3"
        },
        {
            "bufferView" : 5,
            "componentType" : 5126,
            "count" : 6477,
            "type" : "VEC2"
        },
        {
            "bufferView" : 6,
            "componentType" : 5126,
            "count" : 6477,
            "type" : "VEC3"
        },
        {
            "bufferView" : 7,
            "componentType" : 5123,
            "count" : 31584,
            "type" : "SCALAR"
        },
        {
            "bufferView" : 8,
            "componentType" : 5126,
            "count" : 5109,
            "max" : [
                0.06953882426023483,
                0.07404135167598724,
                0.1607353240251541
            ],
            "min" : [
                -0.06953882426023483,
                0.05788510665297508,
                -0.5491108298301697
            ],
            "type" : "VEC3"
        },
        {
            "bufferView" : 9,
            "componentType" : 5126,
            "count" : 5109,
            "type" : "VEC2"
        },
        {
            "bufferView" : 10,
            "componentType" : 5126,
            "count" : 5109,
            "type" : "VEC3"
        },
        {
            "bufferView" : 11,
            "componentType" : 5123,
            "count" : 10752,
            "type" : "SCALAR"
        },
        {
            "bufferView" : 12,
            "componentType" : 5126,
            "count" : 2716,
            "max" : [
                0.029338406398892403,
                0.07923552393913269,
                -0.5673015117645264
            ],
            "min" : [
                -0.029338406398892403,
                0.05349885672330856,
                -0.6517791748046875
            ],
            "type" : "VEC3"
        },
        {
            "bufferView" : 13,
            "componentType" : 5126,
            "count" : 2716,
            "type" : "VEC2"
        },
        {
            "bufferView" : 14,
            "componentType" : 5126,
            "count" : 2716,
            "type" : "VEC3"
        },
        {
            "bufferView" : 15,
            "componentType" : 5123,
            "count" : 11232,
            "type" : "SCALAR"
        },
        {
            "bufferView" : 16,
            "componentType" : 5126,
            "count" : 5866,
            "max" : [
                0.06634686887264252,
                0.039512790739536285,
                -0.5557742714881897
            ],
            "min" : [
                -0.06634686142206192,
                0.018904976546764374,
                -0.6566166281700134
            ],
            "type" : "VEC3"
        },
        {
            "bufferView" : 17,
            "componentType" : 5126,
            "count" : 5866,
            "type" : "VEC2"
        },
        {
            "bufferView" : 18,
            "componentType" : 5126,
            "count" : 5866,
            "type" : "VEC3"
        },
        {
            "bufferView" : 19,
            "componentType" : 5123,
            "count" : 21312,
            "type" : "SCALAR"
        }
    ],
    "bufferViews" : [
        {
            "buffer" : 0,
            "byteLength" : 22272,
            "byteOffset" : 0,
            "target" : 34962
        },
        {
            "buffer" : 0,
            "byteLength" : 14848,
            "byteOffset" : 22272,
            "target" : 34962
        },
        {
            "buffer" : 0,
            "byteLength" : 22272,
            "byteOffset" : 37120,
            "target" : 34962
        },
        {
            "buffer" : 0,
            "byteLength" : 18432,
            "byteOffset" : 59392,
            "target" : 34963
        },
        {
            "buffer" : 0,
            "byteLength" : 77724,
            "byteOffset" : 77824,
            "target" : 34962
        },
        {
            "buffer" : 0,
            "byteLength" : 51816,
            "byteOffset" : 155548,
            "target" : 34962
        },
        {
            "buffer" : 0,
            "byteLength" : 77724,
            "byteOffset" : 207364,
            "target" : 34962
        },
        {
            "buffer" : 0,
            "byteLength" : 63168,
            "byteOffset" : 285088,
            "target" : 34963
        },
        {
            "buffer" : 0,
            "byteLength" : 61308,
            "byteOffset" : 348256,
            "target" : 34962
        },
        {
            "buffer" : 0,
            "byteLength" : 40872,
            "byteOffset" : 409564,
            "target" : 34962
        },
        {
            "buffer" : 0,
            "byteLength" : 61308,
            "byteOffset" : 450436,
            "target" : 34962
        },
        {
            "buffer" : 0,
            "byteLength" : 21504,
            "byteOffset" : 511744,
            "target" : 34963
        },
        {
            "buffer" : 0,
            "byteLength" : 32592,
            "byteOffset" : 533248,
            "target" : 34962
        },
        {
            "buffer" : 0,
            "byteLength" : 21728,
            "byteOffset" : 565840,
            "target" : 34962
        },
        {
            "buffer" : 0,
            "byteLength" : 32592,
            "byteOffset" : 587568,
            "target" : 34962
        },
        {
            "buffer" : 0,
            "byteLength" : 22464,
            "byteOffset" : 620160,
            "target" : 34963
        },
        {
            "buffer" : 0,
            "byteLength" : 70392,
            "byteOffset" : 642624,
            "target" : 34962
        },
        {
            "buffer" : 0,
            "byteLength" : 46928,
            "byteOffset" : 713016,
            "target" : 34962
        },
        {
            "buffer" : 0,
            "byteLength" : 70392,
            "byteOffset" : 759944,
            "target" : 34962
        },
        {
            "buffer" : 0,
            "byteLength" : 42624,
            "byteOffset" : 830336,
            "target" : 34963
        }
    ],
    "buffers" : [
        {
            "byteLength" : 872960,
            "uri" : "data:application/octet-stream;base64,"
        }
    ]
}
