{
    "asset" : {
        "generator" : "Khronos glTF Blender I/O v3.2.43",
        "version" : "2.0"
    },
    "scene" : 0,
    "scenes" : [
        {
            "name" : "Scene",
            "nodes" : [
                0
            ]
        }
    ],
    "nodes" : [
        {
            "mesh" : 0,
            "name" : "Guitar"
        }
    ],
    "materials" : [
        {
            "doubleSided" : true,
            "name" : "face",
            "pbrMetallicRoughness" : {
                "baseColorFactor" : [
                    0.8000000715255737,
                    0.5084837675094604,
                    0.267851859331131,
                    1
                ],
                "metallicFactor" : 0,
                "roughnessFactor" : 0.5
            }
        },
        {
            "doubleSided" : true,
            "name" : "main",
            "pbrMetallicRoughness" : {
                "baseColorFactor" : [
                    0.2500000596046448,
                    0.10115969926118851,
                    0.039949532598257065,
                    1
                ],
                "metallicFactor" : 0,
                "roughnessFactor" : 0.5
            }
        },
        {
            "doubleSided" : true,
            "name" : "fretboard",
            "pbrMetallicRoughness" : {
                "baseColorFactor" : [
                    0.06071436032652855,
                    0.033565398305654526,
                    0.023148177191615105,
                    1
                ],
                "metallicFactor" : 0,
                "roughnessFactor" : 0.5
            }
        }
    ],
    "meshes" : [
        {
            "name" : "Guitar",
            "primitives" : [
                {
                    "attributes" : {
                        "POSITION" : 0,
                        "NORMAL" : 1,
                        "TEXCOORD_0" : 2
                    },
                    "indices" : 3,
                    "material" : 0
                },
                {
                    "attributes" : {
                        "POSITION" : 4,
                        "NORMAL" : 5,
                        "TEXCOORD_0" : 6
                    },
                    "indices" : 7,
                    "material" : 1
                },
                {
                    "attributes" : {
                        "POSITION" : 8,
                        "NORMAL" : 9,
                        "TEXCOORD_0" : 10
                    },
                    "indices" : 11,
                    "material" : 2
                }
            ]
        }
    ],
    "accessors" : [
        {
            "bufferView" : 0,
            "componentType" : 5126,
            "count" : 1858,
            "max" : [
                0.20042148232460022,
                0.061695974320173264,
                0.3415452837944031
            ],
            "min" : [
                -0.20042148232460022,
                0.05584292858839035,
                -0.2060513198375702
            ],
            "type" : "VEC3"
        },
        {
            "bufferView" : 1,
            "componentType" : 5126,
            "count" : 1858,
            "type" : "VEC3"
        },
        {
            "bufferView" : 2,
            "componentType" : 5126,
            "count" : 1858,
            "type" : "VEC2"
        },
        {
            "bufferView" : 3,
            "componentType" : 5123,
            "count" : 9216,
            "type" : "SCALAR"
        },
        {
            "bufferView" : 4,
            "componentType" : 5126,
            "count" : 6498,
            "max" : [
                0.20076897740364075,
                0.06933166831731796,
                0.3418942093849182
            ],
            "min" : [
                -0.20076897740364075,
                -0.06042178347706795,
                -0.6726007461547852
            ],
            "type" : "VEC3"
        },
        {
            "bufferView" : 5,
            "componentType" : 5126,
            "count" : 6498,
            "type" : "VEC3"
        },
        {
            "bufferView" : 6,
            "componentType" : 5126,
            "count" : 6498,
            "type" : "VEC2"
        },
        {
            "bufferView" : 7,
            "componentType" : 5123,
            "count" : 31584,
            "type" : "SCALAR"
        },
        {
            "bufferView" : 8,
            "componentType" : 5126,
            "count" : 5119,
            "max" : [
                0.06953882426023483,
                0.07404135167598724,
                0.1607353240251541
            ],
            "min" : [
                -0.06953882426023483,
                0.05788510665297508,
                -0.5486755967140198
            ],
            "type" : "VEC3"
        },
        {
            "bufferView" : 9,
            "componentType" : 5126,
            "count" : 5119,
            "type" : "VEC3"
        },
        {
            "bufferView" : 10,
            "componentType" : 5126,
            "count" : 5119,
            "type" : "VEC2"
        },
        {
            "bufferView" : 11,
            "componentType" : 5123,
            "count" : 10752,
            "type" : "SCALAR"
        }
    ],
    "bufferViews" : [
        {
            "buffer" : 0,
            "byteLength" : 22296,
            "byteOffset" : 0
        },
        {
            "buffer" : 0,
            "byteLength" : 22296,
            "byteOffset" : 22296
        },
        {
            "buffer" : 0,
            "byteLength" : 14864,
            "byteOffset" : 44592
        },
        {
            "buffer" : 0,
            "byteLength" : 18432,
            "byteOffset" : 59456
        },
        {
            "buffer" : 0,
            "byteLength" : 77976,
            "byteOffset" : 77888
        },
        {
            "buffer" : 0,
            "byteLength" : 77976,
            "byteOffset" : 155864
        },
        {
            "buffer" : 0,
            "byteLength" : 51984,
            "byteOffset" : 233840
        },
        {
            "buffer" : 0,
            "byteLength" : 63168,
            "byteOffset" : 285824
        },
        {
            "buffer" : 0,
            "byteLength" : 61428,
            "byteOffset" : 348992
        },
        {
            "buffer" : 0,
            "byteLength" : 61428,
            "byteOffset" : 410420
        },
        {
            "buffer" : 0,
            "byteLength" : 40952,
            "byteOffset" : 471848
        },
        {
            "buffer" : 0,
            "byteLength" : 21504,
            "byteOffset" : 512800
        }
    ],
    "buffers" : [
        {
            "byteLength" : 534304,
            "uri" : "data:application/octet-stream;base64,"
        }
    ]
}
