{
    "asset" : {
        "generator" : "Khronos glTF Blender I/O v3.2.43",
        "version" : "2.0"
    },
    "scene" : 0,
    "scenes" : [
        {
            "name" : "Scene",
            "nodes" : [
                0
            ]
        }
    ],
    "nodes" : [
        {
            "mesh" : 0,
            "name" : "Cylinder"
        }
    ],
    "materials" : [
        {
            "doubleSided" : true,
            "name" : "MetalCan",
            "pbrMetallicRoughness" : {
                "baseColorFactor" : [
                    0.277408629655838,
                    0.277408629655838,
                    0.277408629655838,
                    1
                ],
                "metallicFactor" : 0.7752161026000977,
                "roughnessFactor" : 0.35965418815612793
            }
        }
    ],
    "meshes" : [
        {
            "name" : "Cylinder",
            "primitives" : [
                {
                    "attributes" : {
                        "POSITION" : 0,
                        "NORMAL" : 1,
                        "TEXCOORD_0" : 2
                    },
                    "indices" : 3,
                    "material" : 0
                }
            ]
        }
    ],
    "accessors" : [
        {
            "bufferView" : 0,
            "componentType" : 5126,
            "count" : 23925,
            "max" : [
                0.5601291060447693,
                0.7507513761520386,
                0.5601290464401245
            ],
            "min" : [
                -0.5601291656494141,
                -0.7605296969413757,
                -0.5601291060447693
            ],
            "type" : "VEC3"
        },
        {
            "bufferView" : 1,
            "componentType" : 5126,
            "count" : 23925,
            "type" : "VEC3"
        },
        {
            "bufferView" : 2,
            "componentType" : 5126,
            "count" : 23925,
            "type" : "VEC2"
        },
        {
            "bufferView" : 3,
            "componentType" : 5123,
            "count" : 116736,
            "type" : "SCALAR"
        }
    ],
    "bufferViews" : [
        {
            "buffer" : 0,
            "byteLength" : 287100,
            "byteOffset" : 0
        },
        {
            "buffer" : 0,
            "byteLength" : 287100,
            "byteOffset" : 287100
        },
        {
            "buffer" : 0,
            "byteLength" : 191400,
            "byteOffset" : 574200
        },
        {
            "buffer" : 0,
            "byteLength" : 233472,
            "byteOffset" : 765600
        }
    ],
    "buffers" : [
        {
            "byteLength" : 999072,
            "uri" : "data:application/octet-stream;base64,"
        }
    ]
}
